# xmcd CD database file
#
# Track frame offsets:
#	150
#	17640
#	32520
#	46622
#	62907
#	74972
#	92372
#	111690
#	124897
#	137927
#	152385
#	167330
#	190262
#
# Disc length: 2786 seconds
#
# Revision: 2
# Processed by: cddbd v1.5.1PL0 Copyright (c) Steve Scherf et al.
# Submitted via: CDex 1.51
#
DISCID=af0ae00d
DTITLE=noodles - Slow Coaster
DYEAR=1997
DGENRE=Rock
TTITLE0=スローコースター
TTITLE1=リトルスウィング
TTITLE2=Hellow Beautiful
TTITLE3=がい骨に星は降る
TTITLE4=悲しい部屋
TTITLE5=Stay here don’t go away
TTITLE6=ミラーガール＆サン
TTITLE7=End of Sweet
TTITLE8=愛を放つイメージ
TTITLE9=ナイアガラ
TTITLE10=God Knows
TTITLE11=スーパーナチュラル
TTITLE12=See You
EXTD=YEAR: 1997
EXTT0=
EXTT1=
EXTT2=
EXTT3=
EXTT4=
EXTT5=
EXTT6=
EXTT7=
EXTT8=
EXTT9=
EXTT10=
EXTT11=
EXTT12=
PLAYORDER=
